<svg width="100" height="77" viewBox="0 0 100 77" fill="none" xmlns="http://www.w3.org/2000/svg"><g clip-path="url(#clip0_790_713)"><g filter="url(#filter0_dddddd_790_713)"><path d="M0 8.79597C0 4.37769 3.58172 0.795959 8 0.795959H96.4814C99.3925 5.18882 99.9886 9.27246 99.9572 19.7296L99.9376 36.8921C99.9375 36.9096 99.9375 36.9114 99.9376 36.9289C99.9407 37.4867 100.066 60.1805 99.7888 64.8368C99.5538 70.1786 98.6186 73.699 97.0722 76.2245H8C3.58172 76.2245 0 72.6428 0 68.2245V8.79597Z" fill="url(#paint0_linear_790_713)"></path><path d="M99.2897 64.8071H99.2896L99.2893 64.8148C99.0637 69.9433 98.1892 73.3157 96.7884 75.7245H8C3.85786 75.7245 0.5 72.3667 0.5 68.2245V8.79597C0.5 4.65383 3.85787 1.29596 8 1.29596H96.211C98.9061 5.46882 99.488 9.45705 99.4572 19.7281L99.4572 19.7291L99.4376 36.8916L99.4376 36.9317C99.4408 37.5034 99.5654 60.1721 99.2897 64.8071Z" stroke="black"></path></g><path d="M0 8.63269C0 4.30459 3.33401 0.795959 7.44671 0.795959H96.4699C97.0173 1.66076 97.6372 2.68145 98.1133 3.84923C98.6745 5.22566 99.0997 6.84953 99.36 8.63269H0Z" fill="url(#paint1_linear_790_713)"></path><path fill-rule="evenodd" clip-rule="evenodd" d="M99.4978 9.61266H0V8.63269H99.36C99.4175 9.01549 99.4366 9.19541 99.4978 9.61266Z" fill="black"></path><path d="M5.00982 23.0922C5.57612 20.8943 7.57308 19.4081 9.84271 19.4081H99.9572C99.9572 37.1169 100.03 46.8747 99.7957 64.4694H9.8427C7.57308 64.4694 5.57612 62.9832 5.00982 60.7853C3.80808 56.1214 1.95996 47.9686 1.95996 41.9388C1.95996 35.9089 3.80808 27.7561 5.00982 23.0922Z" fill="url(#paint2_linear_790_713)"></path><path d="M7.17641 22.2428C7.46756 21.1378 8.46952 20.3878 9.61228 20.3878H33.9957C34.7045 20.3878 35.279 20.9623 35.279 21.6711V62.2065C35.279 62.9152 34.7045 63.4898 33.9957 63.4898H9.61228C8.46952 63.4898 7.46756 62.7398 7.17641 61.6347C6.14965 57.7376 3.91992 48.5173 3.91992 41.9388C3.91992 35.3602 6.14966 26.1399 7.17641 22.2428Z" fill="url(#paint3_linear_790_713)"></path><path d="M24.764 21.3674H35.2791V63.4898H24.764C17.0534 59.6262 11.7598 51.6461 11.7598 42.4286C11.7598 33.2111 17.0534 25.2309 24.764 21.3674Z" fill="url(#paint4_linear_790_713)"></path><path d="M7.17641 22.2428C7.46756 21.1378 8.46952 20.3878 9.61228 20.3878H33.9957C34.7045 20.3878 35.279 20.9623 35.279 21.6711V62.2065C35.279 62.9152 34.7045 63.4898 33.9957 63.4898H9.61228C8.46952 63.4898 7.46756 62.7398 7.17641 61.6347C6.14966 57.7376 3.91992 48.5173 3.91992 41.9388C3.91992 35.3602 6.14966 26.1399 7.17641 22.2428Z" fill="url(#paint5_linear_790_713)" fill-opacity="0.8"></path><g filter="url(#filter1_i_790_713)"><path d="M38.2188 22.3878C38.2188 21.2832 39.1142 20.3878 40.2188 20.3878L99.957 20.3878C100.006 37.1824 100.057 57.1071 99.8422 63.4898H40.2188C39.1142 63.4898 38.2188 62.5943 38.2188 61.4898V22.3878Z" fill="url(#paint6_linear_790_713)"></path></g><g filter="url(#filter2_d_790_713)"><path d="M24.764 21.3674H35.2791V63.4898H24.764C17.0534 59.6262 11.7598 51.6461 11.7598 42.4286C11.7598 33.2111 17.0534 25.2309 24.764 21.3674Z" fill="url(#paint7_radial_790_713)" shape-rendering="crispEdges"></path></g><path opacity="0.4" d="M35.4911 24.6816C25.7671 24.6816 17.8843 32.5614 17.8843 42.2816C17.8843 52.0019 25.7671 59.8816 35.4911 59.8816V59.6302C25.906 59.6302 18.1358 51.863 18.1358 42.2816C18.1358 32.7003 25.906 24.9331 35.4911 24.9331V24.6816Z" fill="url(#paint9_linear_790_713)"></path><path opacity="0.7" fill-rule="evenodd" clip-rule="evenodd" d="M35.2788 33.1224C30.408 33.1227 26.4595 37.0698 26.4595 41.9388C26.4595 46.8077 30.408 50.7549 35.2788 50.7551V50.1254C30.7559 50.1251 27.0895 46.46 27.0895 41.9388C27.0895 37.4176 30.7559 33.7524 35.2788 33.7522V33.1224Z" fill="url(#paint10_linear_790_713)"></path><path fill-rule="evenodd" clip-rule="evenodd" d="M35.2788 22.3469C24.4545 22.3471 15.6797 31.3379 15.6797 42.4286C15.6797 53.5192 24.4545 62.51 35.2788 62.5102V61.8826C24.7927 61.8825 16.2922 53.1726 16.2922 42.4286C16.2922 31.6845 24.7927 22.9747 35.2788 22.9745V22.3469Z" fill="url(#paint11_linear_790_713)"></path><path d="M12.02 20.4602V42.3214" stroke="#212121" stroke-width="0.5"></path><path d="M35.2792 27.2449C27.1608 27.2449 20.5796 34.0428 20.5796 42.4285C20.5796 50.8143 27.1608 57.6122 35.2792 57.6122V56.6632C27.6682 56.6632 21.4983 50.2902 21.4983 42.4285C21.4983 34.5669 27.6682 28.1939 35.2792 28.1939V27.2449Z" fill="url(#paint12_linear_790_713)"></path><g filter="url(#filter3_i_790_713)"><path d="M99.9553 22.3469H42.7088C41.3115 22.3469 40.1787 23.5165 40.1787 24.9592V58.9184C40.1787 60.3611 41.3115 61.5306 42.7088 61.5306H99.8969C99.8999 61.3184 99.9028 61.1006 99.9057 60.8775H42.7088C41.6608 60.8775 40.8112 60.0004 40.8112 58.9184V24.9592C40.8112 23.8771 41.6608 23 42.7088 23H99.957C99.9565 22.782 99.9559 22.5643 99.9553 22.3469Z" fill="url(#paint14_linear_790_713)"></path></g><path opacity="0.8" d="M7.34965 0.795959H96.4697C96.7681 1.28212 97.2392 2.03241 97.6067 2.7559H2.52637C3.96951 1.36633 5.87969 0.795959 7.34965 0.795959Z" fill="#414141"></path><path d="M27.4393 20.3878C18.6112 23.9803 12.4304 32.2773 12.4304 41.9388C12.4304 51.6003 18.6112 59.8973 27.4393 63.4898H25.8496C17.4953 59.5364 11.7598 51.3707 11.7598 41.9388C11.7598 32.5069 17.4953 24.3412 25.8496 20.3878H27.4393Z" fill="url(#paint15_linear_790_713)"></path><path fill-rule="evenodd" clip-rule="evenodd" d="M18.4786 53.0279L15.8999 54.8334C18.592 58.487 20.1444 60.2352 24.1335 62.5923L25.4859 59.737C22.6396 58.1033 20.2308 55.794 18.4786 53.0279Z" fill="url(#paint16_linear_790_713)"></path><rect x="6.85986" y="40.9592" width="0.979973" height="2.93878" fill="white" fill-opacity="0.1"></rect><rect x="12.7397" y="40.9592" width="0.979973" height="2.93878" fill="white" fill-opacity="0.1"></rect><rect x="18.6196" y="40.9592" width="0.979973" height="2.93878" fill="white" fill-opacity="0.1"></rect><rect x="24.4995" y="40.9592" width="0.979973" height="2.93878" fill="white" fill-opacity="0.1"></rect><rect x="30.3794" y="40.9592" width="0.979973" height="2.93878" fill="white" fill-opacity="0.1"></rect><path d="M5.89171 56.4065C5.66738 55.3866 5.441 54.2999 5.22559 53.1769L35.2789 23.3265V27.1546L5.89171 56.4065Z" fill="url(#paint17_linear_790_713)" fill-opacity="0.9"></path><path d="M14.6212 63.4898H9.54645C8.42438 63.4898 7.44099 62.7518 7.15719 61.6666C7.01107 61.1079 6.83986 60.4377 6.65383 59.6799L35.2789 31.198V43.5836L14.6212 63.4898Z" fill="url(#paint18_linear_790_713)" fill-opacity="0.9"></path><g clip-path="url(#clip1_790_713)"><path opacity="0.5" d="M9.58514 20.5161H33.9957C34.6336 20.5161 35.1507 21.0332 35.1507 21.6711V62.2065C35.1507 62.8443 34.6336 63.3615 33.9957 63.3615H9.58514C8.49686 63.3615 7.54593 62.6465 7.27178 61.5969C6.25269 57.6954 4.04826 48.4956 4.04826 41.9388C4.04826 35.382 6.25269 26.1821 7.27178 22.2806C7.54593 21.2311 8.49686 20.5161 9.58514 20.5161Z" fill="url(#paint19_linear_790_713)" fill-opacity="0.8" stroke="url(#paint20_linear_790_713)" stroke-width="0.256667"></path></g><path d="M99.9911 49.7756C99.9831 52.6903 99.969 55.3455 99.9469 57.6122C97.7867 57.6067 96.0372 55.8545 96.0372 53.6938C96.0372 51.5298 97.7922 49.7755 99.9571 49.7755C99.9684 49.7755 99.9798 49.7755 99.9911 49.7756Z" fill="url(#paint21_linear_790_713)"></path><path d="M99.9971 38.0206C100 40.7196 100.001 43.354 99.9983 45.8569C99.9846 45.857 99.9708 45.8571 99.9571 45.8571C97.7922 45.8571 96.0372 44.1028 96.0372 41.9387C96.0372 39.7747 97.7922 38.0204 99.9571 38.0204C99.9704 38.0204 99.9838 38.0204 99.9971 38.0206Z" fill="url(#paint22_linear_790_713)"></path><path d="M99.9735 26.2653C99.9804 28.8688 99.9867 31.5 99.9913 34.1018C99.9799 34.1019 99.9685 34.102 99.9571 34.102C97.7922 34.102 96.0372 32.3477 96.0372 30.1836C96.0372 28.0196 97.7922 26.2653 99.9571 26.2653C99.9626 26.2653 99.9681 26.2653 99.9735 26.2653Z" fill="url(#paint23_linear_790_713)"></path><path d="M52.9184 30.1836C52.9184 32.3477 51.1634 34.102 48.9985 34.102C46.8336 34.102 45.0786 32.3477 45.0786 30.1836C45.0786 28.0196 46.8336 26.2653 48.9985 26.2653C51.1634 26.2653 52.9184 28.0196 52.9184 30.1836Z" fill="url(#paint24_linear_790_713)"></path><path d="M52.9184 41.9387C52.9184 44.1028 51.1634 45.8571 48.9985 45.8571C46.8336 45.8571 45.0786 44.1028 45.0786 41.9387C45.0786 39.7747 46.8336 38.0204 48.9985 38.0204C51.1634 38.0204 52.9184 39.7747 52.9184 41.9387Z" fill="url(#paint25_linear_790_713)"></path><path d="M52.9184 53.6938C52.9184 55.8579 51.1634 57.6122 48.9985 57.6122C46.8336 57.6122 45.0786 55.8579 45.0786 53.6938C45.0786 51.5298 46.8336 49.7755 48.9985 49.7755C51.1634 49.7755 52.9184 51.5298 52.9184 53.6938Z" fill="url(#paint26_linear_790_713)"></path><path d="M65.658 30.1836C65.658 32.3477 63.903 34.102 61.7381 34.102C59.5733 34.102 57.8183 32.3477 57.8183 30.1836C57.8183 28.0196 59.5733 26.2653 61.7381 26.2653C63.903 26.2653 65.658 28.0196 65.658 30.1836Z" fill="url(#paint27_linear_790_713)"></path><path d="M65.658 41.9387C65.658 44.1028 63.903 45.8571 61.7381 45.8571C59.5733 45.8571 57.8183 44.1028 57.8183 41.9387C57.8183 39.7747 59.5733 38.0204 61.7381 38.0204C63.903 38.0204 65.658 39.7747 65.658 41.9387Z" fill="url(#paint28_linear_790_713)"></path><path d="M65.658 53.6938C65.658 55.8579 63.903 57.6122 61.7381 57.6122C59.5733 57.6122 57.8183 55.8579 57.8183 53.6938C57.8183 51.5298 59.5733 49.7755 61.7381 49.7755C63.903 49.7755 65.658 51.5298 65.658 53.6938Z" fill="url(#paint29_linear_790_713)"></path><path d="M78.3977 30.1836C78.3977 32.3477 76.6427 34.102 74.4778 34.102C72.3129 34.102 70.5579 32.3477 70.5579 30.1836C70.5579 28.0196 72.3129 26.2653 74.4778 26.2653C76.6427 26.2653 78.3977 28.0196 78.3977 30.1836Z" fill="url(#paint30_linear_790_713)"></path><path d="M78.3977 41.9387C78.3977 44.1028 76.6427 45.8571 74.4778 45.8571C72.3129 45.8571 70.5579 44.1028 70.5579 41.9387C70.5579 39.7747 72.3129 38.0204 74.4778 38.0204C76.6427 38.0204 78.3977 39.7747 78.3977 41.9387Z" fill="url(#paint31_linear_790_713)"></path><path d="M78.3977 53.6938C78.3977 55.8579 76.6427 57.6122 74.4778 57.6122C72.3129 57.6122 70.5579 55.8579 70.5579 53.6938C70.5579 51.5298 72.3129 49.7755 74.4778 49.7755C76.6427 49.7755 78.3977 51.5298 78.3977 53.6938Z" fill="url(#paint32_linear_790_713)"></path><path d="M91.1373 30.1836C91.1373 32.3477 89.3823 34.102 87.2174 34.102C85.0525 34.102 83.2975 32.3477 83.2975 30.1836C83.2975 28.0196 85.0525 26.2653 87.2174 26.2653C89.3823 26.2653 91.1373 28.0196 91.1373 30.1836Z" fill="url(#paint33_linear_790_713)"></path><path d="M91.1373 53.6938C91.1373 55.8579 89.3823 57.6122 87.2174 57.6122C85.0525 57.6122 83.2975 55.8579 83.2975 53.6938C83.2975 51.5298 85.0525 49.7755 87.2174 49.7755C89.3823 49.7755 91.1373 51.5298 91.1373 53.6938Z" fill="url(#paint34_linear_790_713)"></path><path d="M83.2979 41.9388C83.2979 39.7747 85.0528 38.0204 87.2177 38.0204C88.8095 38.0204 90.1797 38.9688 90.7936 40.3311L85.6095 45.5132C85.387 45.413 85.1756 45.2927 84.9775 45.1546L88.1946 41.9388H87.2177L84.446 44.7095C83.7366 44.0004 83.2979 43.0208 83.2979 41.9388Z" fill="url(#paint35_linear_790_713)"></path><path d="M91.1376 41.9401L87.2191 45.8571C89.3829 45.8564 91.1369 44.1031 91.1376 41.9401Z" fill="url(#paint36_linear_790_713)"></path></g><defs><filter id="filter0_dddddd_790_713" x="-102.667" y="0.795959" width="305.302" height="306.429" filterUnits="userSpaceOnUse" color-interpolation-filters="sRGB"><feFlood flood-opacity="0" result="BackgroundImageFix"></feFlood><feColorMatrix in="SourceAlpha" type="matrix" values="0 0 0 0 0 0 0 0 0 0 0 0 0 0 0 0 0 0 127 0" result="hardAlpha"></feColorMatrix><feOffset dy="2.56667"></feOffset><feGaussianBlur stdDeviation="1.28333"></feGaussianBlur><feColorMatrix type="matrix" values="0 0 0 0 0 0 0 0 0 0 0 0 0 0 0 0 0 0 0.07 0"></feColorMatrix><feBlend mode="normal" in2="BackgroundImageFix" result="effect1_dropShadow_790_713"></feBlend><feColorMatrix in="SourceAlpha" type="matrix" values="0 0 0 0 0 0 0 0 0 0 0 0 0 0 0 0 0 0 127 0" result="hardAlpha"></feColorMatrix><feOffset dy="7.7"></feOffset><feGaussianBlur stdDeviation="3.20833"></feGaussianBlur><feColorMatrix type="matrix" values="0 0 0 0 0 0 0 0 0 0 0 0 0 0 0 0 0 0 0.04 0"></feColorMatrix><feBlend mode="normal" in2="effect1_dropShadow_790_713" result="effect2_dropShadow_790_713"></feBlend><feColorMatrix in="SourceAlpha" type="matrix" values="0 0 0 0 0 0 0 0 0 0 0 0 0 0 0 0 0 0 127 0" result="hardAlpha"></feColorMatrix><feOffset dy="15.4"></feOffset><feGaussianBlur stdDeviation="6.41667"></feGaussianBlur><feColorMatrix type="matrix" values="0 0 0 0 0 0 0 0 0 0 0 0 0 0 0 0 0 0 0.03 0"></feColorMatrix><feBlend mode="normal" in2="effect2_dropShadow_790_713" result="effect3_dropShadow_790_713"></feBlend><feColorMatrix in="SourceAlpha" type="matrix" values="0 0 0 0 0 0 0 0 0 0 0 0 0 0 0 0 0 0 127 0" result="hardAlpha"></feColorMatrix><feOffset dy="28.2333"></feOffset><feGaussianBlur stdDeviation="11.55"></feGaussianBlur><feColorMatrix type="matrix" values="0 0 0 0 0 0 0 0 0 0 0 0 0 0 0 0 0 0 0.03 0"></feColorMatrix><feBlend mode="normal" in2="effect3_dropShadow_790_713" result="effect4_dropShadow_790_713"></feBlend><feColorMatrix in="SourceAlpha" type="matrix" values="0 0 0 0 0 0 0 0 0 0 0 0 0 0 0 0 0 0 127 0" result="hardAlpha"></feColorMatrix><feOffset dy="53.9"></feOffset><feGaussianBlur stdDeviation="20.5333"></feGaussianBlur><feColorMatrix type="matrix" values="0 0 0 0 0 0 0 0 0 0 0 0 0 0 0 0 0 0 0.0225 0"></feColorMatrix><feBlend mode="normal" in2="effect4_dropShadow_790_713" result="effect5_dropShadow_790_713"></feBlend><feColorMatrix in="SourceAlpha" type="matrix" values="0 0 0 0 0 0 0 0 0 0 0 0 0 0 0 0 0 0 127 0" result="hardAlpha"></feColorMatrix><feOffset dy="128.333"></feOffset><feGaussianBlur stdDeviation="51.3333"></feGaussianBlur><feColorMatrix type="matrix" values="0 0 0 0 0 0 0 0 0 0 0 0 0 0 0 0 0 0 0.0175 0"></feColorMatrix><feBlend mode="normal" in2="effect5_dropShadow_790_713" result="effect6_dropShadow_790_713"></feBlend><feBlend mode="normal" in="SourceGraphic" in2="effect6_dropShadow_790_713" result="shape"></feBlend></filter><filter id="filter1_i_790_713" x="38.2188" y="20.3878" width="61.7812" height="48.2354" filterUnits="userSpaceOnUse" color-interpolation-filters="sRGB"><feFlood flood-opacity="0" result="BackgroundImageFix"></feFlood><feBlend mode="normal" in="SourceGraphic" in2="BackgroundImageFix" result="shape"></feBlend><feColorMatrix in="SourceAlpha" type="matrix" values="0 0 0 0 0 0 0 0 0 0 0 0 0 0 0 0 0 0 127 0" result="hardAlpha"></feColorMatrix><feOffset dy="5.13333"></feOffset><feGaussianBlur stdDeviation="2.56667"></feGaussianBlur><feComposite in2="hardAlpha" operator="arithmetic" k2="-1" k3="1"></feComposite><feColorMatrix type="matrix" values="0 0 0 0 0.991667 0 0 0 0 0.506889 0 0 0 0 0.177674 0 0 0 0.21 0"></feColorMatrix><feBlend mode="normal" in2="shape" result="effect1_innerShadow_790_713"></feBlend></filter><filter id="filter2_d_790_713" x="6.62643" y="21.3674" width="33.7862" height="52.3891" filterUnits="userSpaceOnUse" color-interpolation-filters="sRGB"><feFlood flood-opacity="0" result="BackgroundImageFix"></feFlood><feColorMatrix in="SourceAlpha" type="matrix" values="0 0 0 0 0 0 0 0 0 0 0 0 0 0 0 0 0 0 127 0" result="hardAlpha"></feColorMatrix><feOffset dy="5.13333"></feOffset><feGaussianBlur stdDeviation="2.56667"></feGaussianBlur><feComposite in2="hardAlpha" operator="out"></feComposite><feColorMatrix type="matrix" values="0 0 0 0 0 0 0 0 0 0 0 0 0 0 0 0 0 0 0.25 0"></feColorMatrix><feBlend mode="normal" in2="BackgroundImageFix" result="effect1_dropShadow_790_713"></feBlend><feBlend mode="normal" in="SourceGraphic" in2="effect1_dropShadow_790_713" result="shape"></feBlend></filter><filter id="filter3_i_790_713" x="40.1787" y="22.3469" width="59.7783" height="44.317" filterUnits="userSpaceOnUse" color-interpolation-filters="sRGB"><feFlood flood-opacity="0" result="BackgroundImageFix"></feFlood><feBlend mode="normal" in="SourceGraphic" in2="BackgroundImageFix" result="shape"></feBlend><feColorMatrix in="SourceAlpha" type="matrix" values="0 0 0 0 0 0 0 0 0 0 0 0 0 0 0 0 0 0 127 0" result="hardAlpha"></feColorMatrix><feOffset dy="5.13333"></feOffset><feGaussianBlur stdDeviation="2.56667"></feGaussianBlur><feComposite in2="hardAlpha" operator="arithmetic" k2="-1" k3="1"></feComposite><feColorMatrix type="matrix" values="0 0 0 0 0.991667 0 0 0 0 0.506889 0 0 0 0 0.177674 0 0 0 0.21 0"></feColorMatrix><feBlend mode="normal" in2="shape" result="effect1_innerShadow_790_713"></feBlend></filter><linearGradient id="paint0_linear_790_713" x1="68.4847" y1="0.795959" x2="68.4847" y2="76.2245" gradientUnits="userSpaceOnUse"><stop stop-color="#2B2B2B"></stop><stop offset="1" stop-color="#111111"></stop></linearGradient><linearGradient id="paint1_linear_790_713" x1="68.2615" y1="0.795959" x2="68.2615" y2="8.63269" gradientUnits="userSpaceOnUse"><stop stop-color="#2B2B2B"></stop><stop offset="1" stop-color="#111111"></stop></linearGradient><linearGradient id="paint2_linear_790_713" x1="50.8029" y1="19.4081" x2="50.8029" y2="64.4694" gradientUnits="userSpaceOnUse"><stop stop-color="#1A1A1A"></stop><stop offset="1" stop-color="#111111"></stop></linearGradient><linearGradient id="paint3_linear_790_713" x1="19.5995" y1="20.3878" x2="33.6737" y2="74.1931" gradientUnits="userSpaceOnUse"><stop stop-color="#2B2929"></stop><stop offset="1" stop-color="#595959" stop-opacity="0.58"></stop></linearGradient><linearGradient id="paint4_linear_790_713" x1="26.6141" y1="28.1813" x2="24.1342" y2="77.1175" gradientUnits="userSpaceOnUse"><stop stop-opacity="0"></stop><stop offset="1"></stop></linearGradient><linearGradient id="paint5_linear_790_713" x1="2.03837" y1="41.9388" x2="15.8364" y2="41.9388" gradientUnits="userSpaceOnUse"><stop></stop><stop offset="1" stop-color="#595959" stop-opacity="0"></stop></linearGradient><linearGradient id="paint6_linear_790_713" x1="68.288" y1="20.3877" x2="68.288" y2="63.4898" gradientUnits="userSpaceOnUse"><stop stop-color="#F35815"></stop><stop offset="1" stop-color="#D64D12"></stop></linearGradient><radialGradient id="paint7_radial_790_713" cx="0" cy="0" r="1" gradientUnits="userSpaceOnUse" gradientTransform="translate(35.2791 42.4286) rotate(177.953) scale(52.0233 29.0961)"><stop></stop><stop offset="1" stop-opacity="0"></stop></radialGradient><radialGradient id="paint8_radial_790_713" cx="0" cy="0" r="1" gradientUnits="userSpaceOnUse" gradientTransform="translate(35.2792 41.9388) rotate(180) scale(21.4369 13.0102)"><stop stop-color="#D1D1D1"></stop><stop offset="1" stop-color="#D1D1D1" stop-opacity="0.18"></stop></radialGradient><linearGradient id="paint9_linear_790_713" x1="21.0284" y1="27.8245" x2="25.4284" y2="32.2262" gradientUnits="userSpaceOnUse"><stop stop-color="white" stop-opacity="0.98"></stop><stop offset="1" stop-color="white" stop-opacity="0"></stop></linearGradient><linearGradient id="paint10_linear_790_713" x1="29.6092" y1="34.3819" x2="37.1641" y2="55.1649" gradientUnits="userSpaceOnUse"><stop></stop><stop offset="1" stop-opacity="0"></stop></linearGradient><linearGradient id="paint11_linear_790_713" x1="25.4792" y1="22.3469" x2="25.4792" y2="62.5102" gradientUnits="userSpaceOnUse"><stop stop-color="#363636" stop-opacity="0"></stop><stop offset="1" stop-color="#1B1A1A" stop-opacity="0.47"></stop></linearGradient><linearGradient id="paint12_linear_790_713" x1="40.179" y1="60.1428" x2="23.3421" y2="49.8798" gradientUnits="userSpaceOnUse"><stop stop-color="#141414"></stop><stop offset="1" stop-color="#141414" stop-opacity="0"></stop></linearGradient><linearGradient id="paint13_linear_790_713" x1="35.2788" y1="45.8571" x2="32.6673" y2="38.0198" gradientUnits="userSpaceOnUse"><stop stop-color="#EAEAEA"></stop><stop offset="1" stop-color="#EAEAEA" stop-opacity="0"></stop></linearGradient><linearGradient id="paint14_linear_790_713" x1="68.6664" y1="12.5764" x2="67.9659" y2="64.1422" gradientUnits="userSpaceOnUse"><stop stop-color="#FE7034"></stop><stop offset="1" stop-color="#D64D12"></stop></linearGradient><linearGradient id="paint15_linear_790_713" x1="10.4186" y1="28.6279" x2="18.6724" y2="63.708" gradientUnits="userSpaceOnUse"><stop stop-color="#2B2929" stop-opacity="0"></stop><stop offset="1" stop-color="#252525"></stop></linearGradient><linearGradient id="paint16_linear_790_713" x1="20.7929" y1="49.746" x2="26.4493" y2="57.5266" gradientUnits="userSpaceOnUse"><stop stop-color="#111111" stop-opacity="0"></stop><stop offset="1" stop-color="#111111" stop-opacity="0.3"></stop></linearGradient><linearGradient id="paint17_linear_790_713" x1="44.5886" y1="5.20408" x2="12.7589" y2="65.949" gradientUnits="userSpaceOnUse"><stop stop-color="#FD812D" stop-opacity="0.21"></stop><stop offset="1" stop-color="white" stop-opacity="0"></stop></linearGradient><linearGradient id="paint18_linear_790_713" x1="44.5886" y1="5.20408" x2="12.7589" y2="65.949" gradientUnits="userSpaceOnUse"><stop stop-color="#FD812D" stop-opacity="0.21"></stop><stop offset="1" stop-color="white" stop-opacity="0"></stop></linearGradient><linearGradient id="paint19_linear_790_713" x1="7.65136" y1="19.7539" x2="28.1288" y2="54.914" gradientUnits="userSpaceOnUse"><stop></stop><stop offset="0.523798" stop-color="#2F2F2F" stop-opacity="0.94"></stop><stop offset="0.724038" stop-color="#414141" stop-opacity="0.275962"></stop><stop offset="1" stop-color="#595959" stop-opacity="0"></stop></linearGradient><linearGradient id="paint20_linear_790_713" x1="5.16373" y1="43.8403" x2="21.3639" y2="40.1723" gradientUnits="userSpaceOnUse"><stop stop-color="#4F4F4F"></stop><stop offset="1" stop-opacity="0"></stop></linearGradient><linearGradient id="paint21_linear_790_713" x1="68.288" y1="20.3877" x2="68.288" y2="63.4897" gradientUnits="userSpaceOnUse"><stop stop-color="#F86F2E"></stop><stop offset="1" stop-color="#DD5013"></stop></linearGradient><linearGradient id="paint22_linear_790_713" x1="68.288" y1="20.3877" x2="68.288" y2="63.4897" gradientUnits="userSpaceOnUse"><stop stop-color="#F86F2E"></stop><stop offset="1" stop-color="#DD5013"></stop></linearGradient><linearGradient id="paint23_linear_790_713" x1="68.288" y1="20.3877" x2="68.288" y2="63.4897" gradientUnits="userSpaceOnUse"><stop stop-color="#F86F2E"></stop><stop offset="1" stop-color="#DD5013"></stop></linearGradient><linearGradient id="paint24_linear_790_713" x1="68.288" y1="20.3877" x2="68.288" y2="63.4897" gradientUnits="userSpaceOnUse"><stop stop-color="#F86F2E"></stop><stop offset="1" stop-color="#DD5013"></stop></linearGradient><linearGradient id="paint25_linear_790_713" x1="68.288" y1="20.3877" x2="68.288" y2="63.4897" gradientUnits="userSpaceOnUse"><stop stop-color="#F86F2E"></stop><stop offset="1" stop-color="#DD5013"></stop></linearGradient><linearGradient id="paint26_linear_790_713" x1="68.288" y1="20.3877" x2="68.288" y2="63.4897" gradientUnits="userSpaceOnUse"><stop stop-color="#F86F2E"></stop><stop offset="1" stop-color="#DD5013"></stop></linearGradient><linearGradient id="paint27_linear_790_713" x1="68.288" y1="20.3877" x2="68.288" y2="63.4897" gradientUnits="userSpaceOnUse"><stop stop-color="#F86F2E"></stop><stop offset="1" stop-color="#DD5013"></stop></linearGradient><linearGradient id="paint28_linear_790_713" x1="68.288" y1="20.3877" x2="68.288" y2="63.4897" gradientUnits="userSpaceOnUse"><stop stop-color="#F86F2E"></stop><stop offset="1" stop-color="#DD5013"></stop></linearGradient><linearGradient id="paint29_linear_790_713" x1="68.288" y1="20.3877" x2="68.288" y2="63.4897" gradientUnits="userSpaceOnUse"><stop stop-color="#F86F2E"></stop><stop offset="1" stop-color="#DD5013"></stop></linearGradient><linearGradient id="paint30_linear_790_713" x1="68.288" y1="20.3877" x2="68.288" y2="63.4897" gradientUnits="userSpaceOnUse"><stop stop-color="#F86F2E"></stop><stop offset="1" stop-color="#DD5013"></stop></linearGradient><linearGradient id="paint31_linear_790_713" x1="68.288" y1="20.3877" x2="68.288" y2="63.4897" gradientUnits="userSpaceOnUse"><stop stop-color="#F86F2E"></stop><stop offset="1" stop-color="#DD5013"></stop></linearGradient><linearGradient id="paint32_linear_790_713" x1="68.288" y1="20.3877" x2="68.288" y2="63.4897" gradientUnits="userSpaceOnUse"><stop stop-color="#F86F2E"></stop><stop offset="1" stop-color="#DD5013"></stop></linearGradient><linearGradient id="paint33_linear_790_713" x1="68.288" y1="20.3877" x2="68.288" y2="63.4897" gradientUnits="userSpaceOnUse"><stop stop-color="#F86F2E"></stop><stop offset="1" stop-color="#DD5013"></stop></linearGradient><linearGradient id="paint34_linear_790_713" x1="68.288" y1="20.3877" x2="68.288" y2="63.4897" gradientUnits="userSpaceOnUse"><stop stop-color="#F86F2E"></stop><stop offset="1" stop-color="#DD5013"></stop></linearGradient><linearGradient id="paint35_linear_790_713" x1="87.2177" y1="34.102" x2="87.2177" y2="45.8571" gradientUnits="userSpaceOnUse"><stop stop-color="white" stop-opacity="0.74"></stop><stop offset="1" stop-color="white"></stop></linearGradient><linearGradient id="paint36_linear_790_713" x1="87.2177" y1="34.102" x2="87.2177" y2="45.8571" gradientUnits="userSpaceOnUse"><stop stop-color="white" stop-opacity="0.74"></stop><stop offset="1" stop-color="white"></stop></linearGradient><clipPath id="clip0_790_713"><rect width="100" height="75.4286" fill="white" transform="translate(0 0.795959)"></rect></clipPath><clipPath id="clip1_790_713"><rect width="31.3591" height="43.102" fill="white" transform="translate(3.91992 20.3878)"></rect></clipPath></defs></svg>