<svg width="88" height="76" viewBox="0 0 88 76" fill="none" xmlns="http://www.w3.org/2000/svg"><g class="will-change-transform" opacity="0"><rect x="0.444336" y="0.333496" width="42.6667" height="35.5556" rx="6" fill="url(#paint0_linear_239_679)"></rect><path fill-rule="evenodd" clip-rule="evenodd" d="M0.444336 5.66683C0.444336 2.72131 2.83215 0.333496 5.77767 0.333496H37.7777C40.7232 0.333496 43.111 2.72131 43.111 5.66683V30.5557C43.111 33.5012 40.7232 35.8891 37.7777 35.8891H5.77767C2.83215 35.8891 0.444336 33.5012 0.444336 30.5557V5.66683ZM21.9999 0.777941H37.7777C40.4777 0.777941 42.6666 2.96677 42.6666 5.66683V9.00016L21.9999 9.00016V0.777941ZM21.5554 0.777941H5.77767C3.07761 0.777941 0.88878 2.96677 0.88878 5.66683V9.00016L21.5554 9.00016V0.777941ZM0.88878 9.44461V17.8891H21.5554V9.44461L0.88878 9.44461ZM0.88878 18.3335V26.7779H21.5554V18.3335H0.88878ZM0.88878 27.2224V30.5557C0.88878 33.2558 3.07761 35.4446 5.77767 35.4446H21.5554V27.2224H0.88878ZM21.9999 35.4446H37.7777C40.4777 35.4446 42.6666 33.2558 42.6666 30.5557V27.2224H21.9999V35.4446ZM42.6666 26.7779V18.3335H21.9999V26.7779H42.6666ZM42.6666 17.8891V9.44461L21.9999 9.44461V17.8891H42.6666Z" fill="url(#paint1_linear_239_679)"></path></g><g class="will-change-transform" opacity="0"><rect x="64.4443" y="22.5557" width="23.1111" height="23.1111" rx="6" fill="url(#paint2_linear_239_679asdf)"></rect><path fill-rule="evenodd" clip-rule="evenodd" d="M82.2221 22.5557C85.1676 22.5557 87.5554 24.9435 87.5554 27.889V40.3334C87.5554 43.279 85.1676 45.6668 82.2221 45.6668H69.7777C66.8322 45.6668 64.4443 43.279 64.4443 40.3334V27.889C64.4443 24.9435 66.8322 22.5557 69.7777 22.5557H82.2221ZM76.2221 23.0001H82.2221C84.9222 23.0001 87.111 25.1889 87.111 27.889V33.889H76.2221V23.0001ZM64.8888 33.889V27.889C64.8888 25.1889 67.0776 23.0001 69.7777 23.0001H75.7777V33.889H64.8888ZM64.8888 34.3334V40.3334C64.8888 43.0335 67.0776 45.2223 69.7777 45.2223H75.7777V34.3334H64.8888ZM76.2221 45.2223H82.2221C84.9222 45.2223 87.111 43.0335 87.111 40.3334V34.3334H76.2221V45.2223Z" fill="url(#paint3_linear_239_679)"></path></g><g class="will-change-transform" opacity="0"><path d="M39.1041 61.6665H44.4374V66.9998H39.1041V61.6665Z" fill="url(#paint5_linear_239_679)"></path><path d="M56.0138 37.6664H61.3471V42.9998H56.0138V37.6664Z" fill="url(#paint6_linear_239_679)"></path></g><path class="will-change-transform" d="M61.7777 55.4442H71.5555V45.6664H61.7777V55.4442Z" fill="url(#paint7_linear_239_679)" opacity="0"></path><g class="will-change-transform" opacity="0"><path d="M8.44434 15.2664C8.44434 11.2839 8.44434 9.29256 9.2194 7.77141C9.90117 6.43336 10.989 5.3455 12.3271 4.66374C13.8482 3.88867 15.8395 3.88867 19.8221 3.88867H68.1777C72.1603 3.88867 74.1516 3.88867 75.6727 4.66374C77.0108 5.3455 78.0986 6.43336 78.7804 7.77141C79.5555 9.29256 79.5555 11.2839 79.5555 15.2664V26.1109H71.5555V32.3331H56.0138V37.6664H51.111V56.3331H39.1041V61.6665H31.9929V66.9998H26.2221V53.6665H16.4443V46.5553H8.44434V15.2664Z" fill="url(#paint4_linear_239_679)"></path><path fill-rule="evenodd" clip-rule="evenodd" d="M55.9999 32.3331H71.5555V26.1109H79.5555V15.2664C79.5555 11.2839 79.5555 9.29256 78.7804 7.77141C78.0986 6.43336 77.0108 5.3455 75.6727 4.66374C74.1516 3.88867 72.1603 3.88867 68.1777 3.88867H19.8221C15.8395 3.88867 13.8482 3.88867 12.3271 4.66374C10.989 5.3455 9.90117 6.43336 9.2194 7.77141C8.44434 9.29256 8.44434 11.2839 8.44434 15.2664V46.5553H16.4443V53.6665H26.2221V66.9998H32.0068V61.6665H39.1179V66.9998H44.4513V61.6665H39.1179V56.3331H51.111V37.6664H55.9999V42.9998H61.3332V37.6664H55.9999V32.3331ZM55.9999 31.8887H71.111V26.1109C71.111 25.8654 71.31 25.6664 71.5555 25.6664H79.111V18.3331H55.9999V31.8887ZM55.9999 17.8887H79.111V15.2664C79.111 13.2678 79.1107 11.7956 79.0156 10.6321C78.921 9.47377 78.7347 8.66066 78.3844 7.97318C77.7452 6.71877 76.7254 5.6989 75.4709 5.05974C74.7835 4.70945 73.9704 4.52316 72.812 4.42852C71.6486 4.33346 70.1763 4.33312 68.1777 4.33312H55.9999V17.8887ZM55.5555 4.33312V17.8887H32.0034V4.33312H55.5555ZM55.5555 18.3331V31.8895L32.0034 31.8891V18.3331H55.5555ZM55.5555 32.3331H32.0034V46.1109H50.6666V37.6664C50.6666 37.421 50.8655 37.222 51.111 37.222H55.5555V32.3331ZM31.5589 18.3331V31.8891L8.88878 31.8887V18.3331H31.5589ZM31.5589 17.8887V4.33312H19.8221C17.8235 4.33312 16.3512 4.33346 15.1877 4.42852C14.0294 4.52316 13.2163 4.70945 12.5288 5.05974C11.2744 5.6989 10.2546 6.71877 9.6154 7.97318C9.26512 8.66066 9.07882 9.47377 8.98419 10.6321C8.88913 11.7956 8.88878 13.2678 8.88878 15.2664V17.8887H31.5589ZM31.5589 46.1109V32.3331H8.88878V46.1109H16.4443L16.449 46.1109L16.4582 46.1109H31.5589ZM16.8888 46.5553H31.5589V61.7428H31.5624V66.5553H26.6666V53.6665C26.6666 53.421 26.4676 53.222 26.2221 53.222H16.8888V46.5553ZM32.0034 46.5553V61.222L32.0068 61.222H38.6735V56.3331C38.6735 56.0877 38.8725 55.8887 39.1179 55.8887H50.6666V46.5553H32.0034ZM39.5624 66.5553V62.1109H44.0068V66.5553H39.5624ZM56.4443 42.5553V38.1109H60.8888V42.5553H56.4443Z" fill="url(#paint8_linear_239_679)"></path><path fill-rule="evenodd" clip-rule="evenodd" d="M61.7777 45.6664V55.4442H71.5555V45.6664H61.7777ZM71.111 54.9998H62.2221V46.1109H71.111V54.9998Z" fill="url(#paint9_linear_239_679)"></path></g><g class="will-change-transform" opacity="0"><path d="M12 55.4442C12 53.4805 13.5919 51.8887 15.5556 51.8887H30.6667C32.6303 51.8887 34.2222 53.4806 34.2222 55.4442V63.4442H23.5556V72.3331H12V55.4442Z" fill="url(#paint10_linear_239_679)"></path><path fill-rule="evenodd" clip-rule="evenodd" d="M23.5556 72.3331H12V55.4442C12 53.4805 13.5919 51.8887 15.5556 51.8887H30.6667C32.6303 51.8887 34.2222 53.4806 34.2222 55.4442V63.4442H23.5556V72.3331ZM23.1111 62.9998L23.1111 58.9998H12.4444V62.9998H23.1111ZM12.4444 63.4442V67.4442H23.1111L23.1111 63.4442H12.4444ZM23.5556 62.9998H33.7778V55.4442C33.7778 53.726 32.3849 52.3331 30.6667 52.3331H23.5556L23.5556 62.9998ZM23.1111 67.8887H12.4444V71.8887H23.1111V67.8887ZM12.4444 58.5553H23.1111L23.1111 52.3331H15.5556C13.8373 52.3331 12.4444 53.726 12.4444 55.4442V58.5553Z" fill="url(#paint11_linear_239_679)"></path></g><g class="will-change-transform" opacity="0"><path d="M42.2221 39.4443C37.7777 39.4443 35.9999 42.111 35.9999 45.6666V58.111H32.4443V61.6666H35.9999V58.111H50.2221V50.9999H57.7777V58.5554H50.2221V73.2221H67.9999V62.5554H76.8888V45.6666C76.8888 42.111 75.111 39.4443 70.2221 39.4443H42.2221Z" fill="url(#paint12_linear_239_679)"></path><path fill-rule="evenodd" clip-rule="evenodd" d="M35.9999 47.9777V58.111H32.4443V61.6666H35.9999V58.5554H50.2221V73.2221H68.4617V63.0277H76.8888V47.9777C76.8888 44.9907 76.8888 43.4973 76.3075 42.3564C75.7962 41.3529 74.9803 40.537 73.9767 40.0256C72.8359 39.4443 71.3424 39.4443 68.3554 39.4443H44.5332C41.5463 39.4443 40.0528 39.4443 38.9119 40.0256C37.9084 40.537 37.0925 41.3529 36.5812 42.3564C35.9999 43.4973 35.9999 44.9907 35.9999 47.9777ZM50.6666 58.5554V72.7777H57.3471V58.5554H50.6666ZM57.3471 50.9999V39.8888H44.5332C43.0324 39.8888 41.9335 39.8891 41.0665 39.96C40.2046 40.0304 39.6111 40.1682 39.1137 40.4216C38.1938 40.8904 37.4459 41.6383 36.9772 42.5582C36.7238 43.0555 36.5859 43.6491 36.5155 44.5109C36.4447 45.378 36.4443 46.4769 36.4443 47.9777V58.111H50.2221V50.9999H57.3471ZM50.6666 58.111H57.3332V51.4443H50.6666V58.111ZM71.8222 39.96C72.684 40.0304 73.2776 40.1682 73.7749 40.4216C74.6949 40.8904 75.4428 41.6383 75.9115 42.5582C76.1649 43.0555 76.3027 43.6491 76.3731 44.5109C76.444 45.378 76.4443 46.4769 76.4443 47.9777V58.111H57.7916V39.8888H68.3554C69.8563 39.8888 70.9551 39.8891 71.8222 39.96ZM67.9999 62.5554L68.0068 72.7777H57.7916V58.5554H76.4443V62.5554H67.9999ZM35.5554 58.5554H32.8888V61.2221H35.5554V58.5554Z" fill="url(#paint13_linear_239_679)"></path></g><rect class="will-change-transform" opacity="0" x="46.6665" y="66.1113" width="1.77778" height="1.77778" fill="#0E73CC" fill-opacity="0.65"></rect><path class="will-change-transform" d="M31.7778 70.8057H42.0001C42.9666 70.8057 43.7501 71.5892 43.7501 72.5557V75.639H30.0278V72.5557C30.0278 71.5892 30.8113 70.8057 31.7778 70.8057Z" fill="url(#paint14_linear_239_679)" stroke="url(#paint15_linear_239_679)" stroke-width="0.5" opacity="0"></path><defs><linearGradient id="paint0_linear_239_679" x1="21.7777" y1="0.333496" x2="26.2221" y2="45.2224" gradientUnits="userSpaceOnUse"><stop stop-color="#624BBB"></stop><stop offset="1" stop-color="#47B7F8" stop-opacity="0"></stop></linearGradient><linearGradient id="paint1_linear_239_679" x1="21.7777" y1="0.333496" x2="21.7777" y2="35.8891" gradientUnits="userSpaceOnUse"><stop stop-color="#DDF2FF"></stop><stop offset="1" stop-color="#A9DFFE" stop-opacity="0"></stop></linearGradient><linearGradient id="paint2_linear_239_679asdf" x1="75.9999" y1="22.5557" x2="75.9999" y2="48.7779" gradientUnits="userSpaceOnUse"><stop stop-color="#47B7F8"></stop><stop offset="1" stop-color="#0E73CC" stop-opacity="0"></stop></linearGradient><linearGradient id="paint3_linear_239_679" x1="75.9999" y1="22.5557" x2="75.9999" y2="45.6668" gradientUnits="userSpaceOnUse"><stop stop-color="#0E73CC"></stop><stop offset="1" stop-color="#D4C9FE" stop-opacity="0"></stop></linearGradient><linearGradient id="paint4_linear_239_679" x1="47.9999" y1="65.222" x2="48.7677" y2="-0.213777" gradientUnits="userSpaceOnUse"><stop stop-color="#47B7F8" stop-opacity="0.04"></stop><stop offset="1" stop-color="#144EB6" stop-opacity="0.8"></stop></linearGradient><linearGradient id="paint5_linear_239_679" x1="47.9999" y1="65.222" x2="48.7677" y2="-0.213777" gradientUnits="userSpaceOnUse"><stop stop-color="#47B7F8" stop-opacity="0.04"></stop><stop offset="1" stop-color="#144EB6" stop-opacity="0.8"></stop></linearGradient><linearGradient id="paint6_linear_239_679" x1="47.9999" y1="65.222" x2="48.7677" y2="-0.213777" gradientUnits="userSpaceOnUse"><stop stop-color="#47B7F8" stop-opacity="0.04"></stop><stop offset="1" stop-color="#144EB6" stop-opacity="0.8"></stop></linearGradient><linearGradient id="paint7_linear_239_679" x1="47.9999" y1="65.222" x2="48.7677" y2="-0.213777" gradientUnits="userSpaceOnUse"><stop stop-color="#47B7F8" stop-opacity="0.04"></stop><stop offset="1" stop-color="#144EB6" stop-opacity="0.8"></stop></linearGradient><linearGradient id="paint8_linear_239_679" x1="43.9999" y1="0.555339" x2="43.9999" y2="51.8887" gradientUnits="userSpaceOnUse"><stop stop-color="#B5E4FF"></stop><stop offset="1" stop-color="#F9F8FF" stop-opacity="0"></stop></linearGradient><linearGradient id="paint9_linear_239_679" x1="43.9999" y1="0.555339" x2="43.9999" y2="51.8887" gradientUnits="userSpaceOnUse"><stop stop-color="#B5E4FF"></stop><stop offset="1" stop-color="#F9F8FF" stop-opacity="0"></stop></linearGradient><linearGradient id="paint10_linear_239_679" x1="23.5556" y1="48.7776" x2="23.1111" y2="73.222" gradientUnits="userSpaceOnUse"><stop stop-color="#144EB6" stop-opacity="0.5"></stop><stop offset="0.916667" stop-color="#47B7F8" stop-opacity="0"></stop></linearGradient><linearGradient id="paint11_linear_239_679" x1="23.1111" y1="51.8887" x2="23.1111" y2="72.3331" gradientUnits="userSpaceOnUse"><stop stop-color="#F4F2FE" stop-opacity="0.42"></stop><stop offset="0.48913" stop-color="#C6B9F9" stop-opacity="0.15"></stop><stop offset="0.86413" stop-color="#A18BF5" stop-opacity="0"></stop></linearGradient><linearGradient id="paint12_linear_239_679" x1="54.6666" y1="35.4443" x2="54.6666" y2="73.2221" gradientUnits="userSpaceOnUse"><stop stop-color="#624BBB" stop-opacity="0.79"></stop><stop offset="1" stop-color="#A9DFFE" stop-opacity="0"></stop></linearGradient><linearGradient id="paint13_linear_239_679" x1="54.6666" y1="39.4443" x2="54.6666" y2="73.2221" gradientUnits="userSpaceOnUse"><stop stop-color="#F4F2FE" stop-opacity="0.76"></stop><stop offset="0.447368" stop-color="#D4C9FE" stop-opacity="0.72"></stop><stop offset="1" stop-color="#54658E" stop-opacity="0"></stop></linearGradient><linearGradient id="paint14_linear_239_679" x1="36.8889" y1="70.5557" x2="36.8889" y2="75.889" gradientUnits="userSpaceOnUse"><stop stop-color="#0E73CC" stop-opacity="0.37"></stop><stop offset="1" stop-color="#47B7F8" stop-opacity="0"></stop></linearGradient><linearGradient id="paint15_linear_239_679" x1="36.8889" y1="70.5557" x2="36.8889" y2="75.889" gradientUnits="userSpaceOnUse"><stop stop-color="#C6BDF0" stop-opacity="0.6"></stop><stop offset="1" stop-opacity="0"></stop></linearGradient></defs></svg>